<svg width="58" height="24" viewBox="0 0 58 24" fill="none" xmlns="http://www.w3.org/2000/svg">
<path d="M11.7656 0.600006L11.1187 1.21876L3.91874 8.41876L2.39999 9.96563H21.1312L19.6125 8.41876L12.4125 1.21876L11.7656 0.600006ZM11.7656 3.15938L16.7719 8.16563H6.75937L11.7656 3.15938ZM2.39999 13.5656L3.91874 15.1125L11.1187 22.3125L11.7656 22.9313L12.4125 22.3125L19.6125 15.1125L21.1312 13.5656H2.39999ZM6.75937 15.3656H16.7719L11.7656 20.3719L6.75937 15.3656Z" fill="black"/>
<path d="M35.7344 1.8V3.90938L42.9344 12.9094V23.4L48.3344 19.35V12.9094L55.5344 3.90938V1.8H35.7344ZM37.7875 3.6H53.4812L47.0125 11.7H44.2562L37.7875 3.6ZM44.7344 13.5H46.5344V18.45L44.7344 19.8V13.5Z" fill="black"/>
</svg>
