<svg width="375" height="60" viewBox="5 0 375 60" fill="none" xmlns="http://www.w3.org/2000/svg">
<g filter="url(#filter0_dd_501_170)">
<rect width="375" height="60" fill="black"/>
<circle cx="35" cy="24" r="4" stroke="#BE8AFF" stroke-width="2"/>
<circle cx="35" cy="36" r="4" stroke="#BE8AFF" stroke-width="2"/>
<circle cx="47" cy="24" r="4" stroke="#BE8AFF" stroke-width="2"/>
<circle cx="47" cy="36" r="4" stroke="#BE8AFF" stroke-width="2"/>
<path d="M102.75 19V25H109.011V19H102.75ZM104.837 21H106.924V23H104.837V21ZM111.098 21V23H126.75V21H111.098ZM102.75 27V33H109.011V27H102.75ZM104.837 29H106.924V31H104.837V29ZM111.098 29V31H126.75V29H111.098ZM102.75 35V41H109.011V35H102.75ZM104.837 37H106.924V39H104.837V37ZM111.098 37V39H126.75V37H111.098Z" fill="white"/>
<path d="M187.5 18C186.69 18 185.937 18.2115 185.24 18.6346C184.543 19.0385 183.988 19.5962 183.573 20.3077C183.178 21.0192 182.98 21.7885 182.98 22.6154V23.5385H178.517L178.46 24.4038L177.5 42H197.5L196.54 24.4038L196.483 23.5385H192.02V22.6154C192.02 21.7885 191.813 21.0192 191.398 20.3077C191.003 19.5962 190.457 19.0385 189.76 18.6346C189.063 18.2115 188.31 18 187.5 18ZM187.5 19.8462C188.253 19.8462 188.894 20.1154 189.421 20.6538C189.948 21.1923 190.212 21.8462 190.212 22.6154V23.5385H184.788V22.6154C184.788 21.8462 185.052 21.1923 185.579 20.6538C186.106 20.1154 186.747 19.8462 187.5 19.8462ZM180.212 25.3846H182.98V28.1538H184.788V25.3846H190.212V28.1538H192.02V25.3846H194.788L195.579 40.1538H179.421L180.212 25.3846Z" fill="white"/>
<path d="M255.214 19C253.957 19 252.796 19.3139 251.732 19.9416C250.668 20.5504 249.817 21.3779 249.179 22.4241C248.56 23.4704 248.25 24.6118 248.25 25.8482C248.25 26.8945 248.637 27.9788 249.411 29.1012C249.778 29.6528 250.156 30.0999 250.542 30.4423L261.25 41L272.306 30.0999C272.596 29.7955 272.867 29.4721 273.118 29.1297C273.447 28.6541 273.708 28.169 273.902 27.6744C274.134 27.0467 274.25 26.438 274.25 25.8482C274.25 24.6118 273.931 23.4704 273.292 22.4241C272.673 21.3779 271.832 20.5504 270.768 19.9416C269.704 19.3139 268.543 19 267.286 19C265.042 19 263.03 19.8941 261.25 21.6822C259.47 19.8941 257.458 19 255.214 19ZM255.214 20.8262C255.853 20.8262 256.52 20.9689 257.217 21.2542C257.778 21.4635 258.348 21.7583 258.929 22.1388C259.335 22.4241 259.731 22.7285 260.118 23.0519L260.554 23.4799L261.25 24.2503L261.946 23.4799L262.382 23.0519C262.769 22.7285 263.165 22.4241 263.571 22.1388C264.152 21.7583 264.722 21.4635 265.283 21.2542C265.98 20.9689 266.647 20.8262 267.286 20.8262C268.214 20.8262 269.065 21.0545 269.839 21.511C270.632 21.9676 271.251 22.5858 271.696 23.3658C272.161 24.1267 272.393 24.9542 272.393 25.8482C272.393 26.2668 272.238 26.7613 271.929 27.332C271.716 27.7505 271.445 28.1786 271.116 28.6161L270.652 29.1582L261.25 38.4034L251.558 28.8729C251.345 28.6066 251.142 28.3403 250.949 28.0739C250.697 27.7125 250.504 27.3511 250.368 26.9896C250.194 26.5711 250.107 26.1907 250.107 25.8482C250.107 24.9542 250.33 24.1267 250.775 23.3658C251.239 22.5858 251.858 21.9676 252.632 21.511C253.425 21.0545 254.286 20.8262 255.214 20.8262Z" fill="white"/>
<path d="M335 19C333.729 19 332.552 19.3125 331.469 19.9375C330.406 20.5625 329.562 21.4167 328.938 22.5C328.312 23.5625 328 24.7292 328 26C328 27.1875 328.271 28.2917 328.812 29.3125C329.375 30.3333 330.135 31.1667 331.094 31.8125C329.906 32.3333 328.844 33.0521 327.906 33.9688C326.99 34.8854 326.281 35.9375 325.781 37.125C325.26 38.3542 325 39.6458 325 41H327C327 39.5417 327.354 38.2083 328.062 37C328.792 35.7708 329.76 34.8021 330.969 34.0938C332.198 33.3646 333.542 33 335 33C336.458 33 337.792 33.3646 339 34.0938C340.229 34.8021 341.198 35.7708 341.906 37C342.635 38.2083 343 39.5417 343 41H345C345 39.6458 344.74 38.3542 344.219 37.125C343.719 35.9375 343 34.8854 342.062 33.9688C341.146 33.0521 340.094 32.3333 338.906 31.8125C339.865 31.1667 340.615 30.3333 341.156 29.3125C341.719 28.2917 342 27.1875 342 26C342 24.7292 341.688 23.5625 341.062 22.5C340.438 21.4167 339.583 20.5625 338.5 19.9375C337.438 19.3125 336.271 19 335 19ZM335 21C335.917 21 336.75 21.2292 337.5 21.6875C338.271 22.125 338.875 22.7292 339.312 23.5C339.771 24.25 340 25.0833 340 26C340 26.9167 339.771 27.7604 339.312 28.5312C338.875 29.2812 338.271 29.8854 337.5 30.3438C336.75 30.7812 335.917 31 335 31C334.083 31 333.24 30.7812 332.469 30.3438C331.719 29.8854 331.115 29.2812 330.656 28.5312C330.219 27.7604 330 26.9167 330 26C330 25.0833 330.219 24.25 330.656 23.5C331.115 22.7292 331.719 22.125 332.469 21.6875C333.24 21.2292 334.083 21 335 21Z" fill="white"/>
</g>
<defs>
<filter id="filter0_dd_501_170" x="-4" y="0" width="383" height="68" filterUnits="userSpaceOnUse" color-interpolation-filters="sRGB">
<feFlood flood-opacity="0" result="BackgroundImageFix"/>
<feColorMatrix in="SourceAlpha" type="matrix" values="0 0 0 0 0 0 0 0 0 0 0 0 0 0 0 0 0 0 127 0" result="hardAlpha"/>
<feOffset dy="4"/>
<feGaussianBlur stdDeviation="2"/>
<feComposite in2="hardAlpha" operator="out"/>
<feColorMatrix type="matrix" values="0 0 0 0 0 0 0 0 0 0 0 0 0 0 0 0 0 0 0.25 0"/>
<feBlend mode="normal" in2="BackgroundImageFix" result="effect1_dropShadow_501_170"/>
<feColorMatrix in="SourceAlpha" type="matrix" values="0 0 0 0 0 0 0 0 0 0 0 0 0 0 0 0 0 0 127 0" result="hardAlpha"/>
<feOffset dy="4"/>
<feGaussianBlur stdDeviation="2"/>
<feComposite in2="hardAlpha" operator="out"/>
<feColorMatrix type="matrix" values="0 0 0 0 0 0 0 0 0 0 0 0 0 0 0 0 0 0 0.25 0"/>
<feBlend mode="normal" in2="effect1_dropShadow_501_170" result="effect2_dropShadow_501_170"/>
<feBlend mode="normal" in="SourceGraphic" in2="effect2_dropShadow_501_170" result="shape"/>
</filter>
</defs>
</svg>
